<svg width="46" height="37" viewBox="0 0 46 37" fill="none" xmlns="http://www.w3.org/2000/svg">
<path d="M20.838 23.735C20.5746 23.6411 20.2945 23.5807 19.9993 23.5807H15.5483L14.3212 20.308C14.0461 19.575 13.6108 18.9334 13.0716 18.4042C16.5396 17.724 19.1648 14.6644 19.1648 10.9992V3.45082C19.1648 2.0636 18.0359 0.934692 16.6486 0.934692H6.58581C5.19859 0.934692 4.06968 2.0636 4.06968 3.45082V4.28953C2.21949 4.28953 0.714844 5.79418 0.714844 7.64437C0.714844 9.49456 2.21949 10.9992 4.06968 10.9992L4.06381 17.9387L4.70375 18.0955C5.04762 18.1794 5.39484 18.249 5.74459 18.3094C4.71297 19.2773 4.06381 20.6486 4.06381 22.1717C4.06381 24.1988 4.68278 26.0834 5.74123 27.6476V37H17.4832V31.9678H21.6767V31.9695H25.0316C27.3439 31.9695 29.2251 30.0882 29.2251 27.7759C29.2251 27.4807 29.1647 27.2006 29.0708 26.9372L45.9993 26.9355V11.8388H20.838V23.735ZM15.4174 15.4653C15.1776 15.3899 14.9352 15.3186 14.7062 15.2288C13.6184 14.8011 12.8191 13.8273 12.5532 12.6766H17.2408C16.912 13.7762 16.2696 14.739 15.4174 15.4653ZM4.06968 9.32179C3.14459 9.32179 2.39226 8.56947 2.39226 7.64437C2.39226 6.71927 3.14459 5.96695 4.06968 5.96695H5.7471V3.45082C5.7471 2.98785 6.12368 2.61211 6.58581 2.61211H16.6495C17.1116 2.61211 17.4882 2.98785 17.4882 3.45082V10.9992H10.7802V11.8379C10.7802 13.8181 11.8814 15.6289 13.563 16.5313C12.9533 16.7469 12.2999 16.8702 11.6164 16.8702L8.47542 16.871C7.55788 16.871 6.64117 16.783 5.74207 16.6068L5.74878 9.32179H4.06968ZM15.8057 35.3226H7.41865V29.5339C9.14304 31.0444 11.3933 31.9678 13.8599 31.9678H15.8057V35.3226ZM20.838 30.2904H13.8599C9.38291 30.2904 5.74123 26.6479 5.74123 22.1683C5.74123 20.173 7.36497 18.5484 9.3611 18.5484C10.8616 18.5484 12.2236 19.492 12.7503 20.8977L14.031 24.312L12.5918 26.4709L13.9874 27.401L15.4157 25.2581H19.9993C20.4614 25.2581 20.838 25.6339 20.838 26.0968V26.0985V30.2904ZM26.709 26.9372C27.1711 26.9372 27.5477 27.3129 27.5477 27.7759C27.5477 29.1631 26.4188 30.292 25.0316 30.292H22.5154V26.444L23.4565 25.5047C23.6141 25.347 23.8246 25.2598 24.0494 25.2598H24.1928C24.655 25.2598 25.0316 25.6355 25.0316 26.0985V26.9372H26.709ZM44.3219 25.2581L34.2574 25.2589V23.5807C35.6446 23.5807 36.7735 22.4518 36.7735 21.0646C36.7735 19.6773 35.6446 18.5484 34.2574 18.5484H32.5799C32.1178 18.5484 31.7412 18.1727 31.7412 17.7097C31.7412 17.2468 32.1178 16.871 32.5799 16.871H34.2574C34.7195 16.871 35.0961 17.2468 35.0961 17.7097H36.7735C36.7735 16.3225 35.6446 15.1936 34.2574 15.1936V13.5162H44.3219V25.2581ZM32.5799 13.5162V15.1936C31.1927 15.1936 30.0638 16.3225 30.0638 17.7097C30.0638 19.0969 31.1927 20.2259 32.5799 20.2259H34.2574C34.7195 20.2259 35.0961 20.6016 35.0961 21.0646C35.0961 21.5275 34.7195 21.9033 34.2574 21.9033H32.5799C32.1178 21.9033 31.7412 21.5275 31.7412 21.0646H30.0638C30.0638 22.4518 31.1927 23.5807 32.5799 23.5807V25.2589L26.5656 25.2598C26.2192 24.2835 25.2865 23.5824 24.1928 23.5824H24.0486C23.4841 23.5824 22.9532 23.7761 22.5154 24.1175V13.5162H32.5799Z" fill="#1F2428"/>
</svg>
