<svg width="52" height="48" viewBox="0 0 52 48" fill="none" xmlns="http://www.w3.org/2000/svg">
<path d="M41.9355 22.0923V14.871L43.8368 13.4452C44.7468 12.7625 45.2903 11.6755 45.2903 10.5374C45.2903 8.5916 43.7538 6.99889 41.8306 6.90664C41.4583 5.45986 40.1423 4.38715 38.5806 4.38715H32.7097C31.3225 4.38715 30.1935 5.51606 30.1935 6.90328H1.67742V2.70973C1.67742 2.2476 2.054 1.87102 2.51613 1.87102H26.8387C26.8387 1.28812 26.9268 0.725345 27.0861 0.193604H2.51613C1.1289 0.193604 0 1.32251 0 2.70973V37.9355C0 39.3228 1.1289 40.4517 2.51613 40.4517H30.1935V48.0001H52V33.7772C52 27.9406 47.6379 22.952 41.9355 22.0923ZM41.4742 23.7337C41.5681 23.7454 41.6621 23.7563 41.7543 23.7706L41.3056 28.2568L39.6416 26.1768L41.4742 23.7337ZM31.871 9.24244V6.90328C31.871 6.44115 32.2475 6.06457 32.7097 6.06457H38.5806C39.5057 6.06457 40.2581 6.81689 40.2581 7.74199V8.5807H41.6562C42.7348 8.5807 43.6129 9.45883 43.6129 10.5374C43.6129 11.1497 43.3202 11.7351 42.8295 12.1033L40.2581 14.0323V22.5595L38.5806 24.7963L36.9032 22.5595V20.3226H38.5806V18.6452H34.3871C32.9999 18.6452 31.871 17.5163 31.871 16.1291V14.7721L30.7362 14.2042C30.4015 14.0373 30.1935 13.7002 30.1935 13.3261C30.1935 13.1315 30.2506 12.9428 30.3588 12.781L31.1665 11.569C31.6269 10.8771 31.871 10.0728 31.871 9.24244ZM35.6695 23.7102L37.5197 26.1768L35.8557 28.2568L35.4028 23.7303L35.6695 23.7102ZM30.1935 9.24244C30.1935 9.74063 30.0476 10.2229 29.7708 10.6381L28.9632 11.85C28.6705 12.2886 28.5161 12.7994 28.5161 13.3261C28.5161 14.3401 29.0797 15.2518 29.9864 15.7055L30.1935 15.8087V16.1291C30.1935 18.4414 32.0748 20.3226 34.3871 20.3226H35.2258V22.0621C30.4133 22.4353 26.4336 25.7239 24.9516 30.0961L24.3427 27.0533L25.0464 24.2386C25.1227 23.9358 25.1613 23.623 25.1613 23.3101C25.1613 22.5066 24.9097 21.7619 24.4845 21.1454C26.7205 21.0573 28.5161 19.2248 28.5161 16.9678C28.5161 14.6555 26.6349 12.7742 24.3226 12.7742H22.7047C19.1972 12.7742 15.9003 11.434 13.3783 9.0118C13.3539 8.86251 13.3145 8.71993 13.265 8.5807H30.1935V9.24244ZM11.7419 9.41941V24.5162C11.7419 24.9783 11.3654 25.3549 10.9032 25.3549C10.4411 25.3549 10.0645 24.9783 10.0645 24.5162V9.41941C10.0645 8.95728 10.4411 8.5807 10.9032 8.5807C11.3654 8.5807 11.7419 8.95728 11.7419 9.41941ZM8.3871 19.3296C7.41335 18.9824 6.70968 18.0598 6.70968 16.9678C6.70968 15.8758 7.41335 14.9532 8.3871 14.606V19.3296ZM13.4194 11.2595C15.8315 13.1391 18.7301 14.2286 21.8065 14.4081V19.5141C21.7729 19.5158 21.7394 19.515 21.7058 19.5175V19.5217C21.5825 19.5091 21.4626 19.4839 21.3351 19.4839H19.2903C18.4659 19.4839 17.7395 19.8873 17.2808 20.5021C15.8994 21.033 14.5927 21.7694 13.4194 22.6777V11.2595ZM23.4839 19.4839V14.4517H24.3226C25.7098 14.4517 26.8387 15.5806 26.8387 16.9678C26.8387 18.355 25.7098 19.4839 24.3226 19.4839H23.4839ZM18.7988 26.1936L18.3493 25.7441C17.8813 25.2761 17.6129 24.6277 17.6129 23.9652V23.862C18.0591 24.2646 18.6437 24.5162 19.2903 24.5162H21.8065V22.8388H19.2903C18.8282 22.8388 18.4516 22.4622 18.4516 22.0001C18.4516 21.5379 18.8282 21.1613 19.2903 21.1613H21.3351C22.5202 21.1613 23.4839 22.125 23.4839 23.3101C23.4839 23.4854 23.4621 23.6607 23.4193 23.831L22.8288 26.1936H18.7988ZM2.51613 38.7742C2.054 38.7742 1.67742 38.3977 1.67742 37.9355V8.5807H8.54142C8.44748 8.84406 8.3871 9.12418 8.3871 9.41941V12.859C6.47568 13.249 5.03226 14.9432 5.03226 16.9678C5.03226 18.9924 6.47568 20.6866 8.3871 21.0766V24.5162C8.3871 25.9034 9.516 27.0323 10.9032 27.0323C12.1504 27.0323 13.1803 26.1181 13.3783 24.9263C14.1482 24.1874 15.0112 23.5466 15.9355 23.0082V23.9652C15.9355 25.0848 16.3716 26.1382 17.1634 26.93L17.6574 27.424L18.725 35.4295C18.8995 36.7395 19.5134 37.8986 20.4016 38.7742H2.51613ZM28.5145 38.7742C29.021 38.2752 29.4505 37.689 29.749 37.0146L30.1935 36.0157V38.7742H28.5145ZM50.3226 46.3226H46.9677V30.3872H45.2903V46.3226H31.871V30.3872H30.1935V31.8868L28.2167 36.3336C27.5583 37.8164 26.0839 38.7742 24.4618 38.7742C22.4103 38.7742 20.6591 37.2411 20.3882 35.2081L19.4094 27.871H22.7961L24.3226 35.5024V36.2581H26V33.841C26 29.1324 29.2936 25.0932 33.7446 24.0021L34.5959 32.5175L38.5806 27.5355L42.5654 32.5166L43.399 24.1782C47.424 25.5428 50.3226 29.374 50.3226 33.7772V46.3226Z" fill="#1F2428"/>
</svg>
