<svg width="52" height="52" viewBox="0 0 52 52" fill="none" xmlns="http://www.w3.org/2000/svg">
<path d="M48.2753 25.1613H48.0623C50.4392 23.4906 52 20.7329 52 17.6129C52 12.5261 47.861 8.3871 42.7742 8.3871C39.6542 8.3871 36.8965 9.94794 35.2258 12.3248V0H7.17181L0 8.06839V10.3832L7.17181 18.4516H16.7742H18.1841C19.3935 18.4516 20.4335 19.3146 20.6566 20.5039L25.0137 43.7421C23.1777 44.1891 21.8065 45.8355 21.8065 47.8064C21.8065 48.7542 22.1344 49.6197 22.667 50.3226H20.129V40.2581H15.0968V50.3226H13.4194V31.871H8.3871V50.3226H6.70968V36.9032H1.67742V50.3226H0V52H26C28.3123 52 30.1935 50.1188 30.1935 47.8064C30.1935 46.8587 29.8656 45.9932 29.333 45.2903H41.1177C40.586 45.9932 40.2581 46.8587 40.2581 47.8064C40.2581 50.1188 42.1393 52 44.4516 52C46.7639 52 48.6452 50.1188 48.6452 47.8064C48.6452 45.4941 46.7639 43.6129 44.4516 43.6129H26.6961L26.0671 40.2581H45.7265C47.3326 40.2581 48.7525 39.234 49.2599 37.7109L51.8088 30.0652C51.9354 29.6845 52 29.2877 52 28.886C52 26.832 50.3293 25.1613 48.2753 25.1613ZM43.6129 26.8387V28.5161H40.2581V26.8387H43.6129ZM38.5806 28.5161H35.2258V26.8387H38.5806V28.5161ZM38.5806 30.1935V33.5484H35.2258V30.1935H38.5806ZM33.5484 28.5161H30.1935V26.8387H33.5484V28.5161ZM28.5161 28.5161H23.8646L23.5501 26.8387H28.5161V28.5161ZM24.18 30.1935H28.5161V33.5484H24.809L24.18 30.1935ZM30.1935 30.1935H33.5484V33.5484H30.1935V30.1935ZM33.5484 35.2258V38.5806H30.1935V35.2258H33.5484ZM35.2258 35.2258H38.5806V38.5806H35.2258V35.2258ZM40.2581 35.2258H43.6129V38.5806H40.2581V35.2258ZM40.2581 33.5484V30.1935H43.6129V33.5484H40.2581ZM45.2903 30.1935H49.998L48.8792 33.5484H45.2903V30.1935ZM50.2848 28.5161H45.2903V26.8387H48.2753C49.2775 26.8387 50.1104 27.5634 50.2848 28.5161ZM42.7742 10.0645C46.9367 10.0645 50.3226 13.4504 50.3226 17.6129C50.3226 21.7754 46.9367 25.1613 42.7742 25.1613C38.6117 25.1613 35.2258 21.7754 35.2258 17.6129C35.2258 13.4504 38.6117 10.0645 42.7742 10.0645ZM1.67742 8.70581L6.70968 3.04452V15.4071L1.67742 9.74581V8.70581ZM16.7742 16.7742H8.3871V1.67742H33.5484V16.7742H18.1841H16.7742ZM21.5205 18.4516H33.5912C33.8428 21.2244 35.3248 23.6424 37.487 25.1613H23.2356L22.3038 20.1945C22.1822 19.5411 21.9004 18.9548 21.5205 18.4516ZM16.7742 41.9355H18.4516V50.3226H16.7742V41.9355ZM10.0645 33.5484H11.7419V50.3226H10.0645V33.5484ZM3.35484 38.5806H5.03226V50.3226H3.35484V38.5806ZM28.5161 47.8064C28.5161 49.1937 27.3872 50.3226 26 50.3226C24.6128 50.3226 23.4839 49.1937 23.4839 47.8064C23.4839 46.4192 24.6128 45.2903 26 45.2903C27.3872 45.2903 28.5161 46.4192 28.5161 47.8064ZM46.9677 47.8064C46.9677 49.1937 45.8388 50.3226 44.4516 50.3226C43.0644 50.3226 41.9355 49.1937 41.9355 47.8064C41.9355 46.4192 43.0644 45.2903 44.4516 45.2903C45.8388 45.2903 46.9677 46.4192 46.9677 47.8064ZM25.1235 35.2258H28.5161V38.5806H25.7526L25.1235 35.2258ZM45.7265 38.5806H45.2903V35.2258H48.3197L47.6681 37.1808C47.3896 38.0179 46.6088 38.5806 45.7265 38.5806Z" fill="#1F2428"/>
</svg>
