<svg width="52" height="52" viewBox="0 0 52 52" fill="none" xmlns="http://www.w3.org/2000/svg">
<path d="M46.0972 19.5008C46.6264 19.0395 46.9677 18.3686 46.9677 17.6129C46.9677 16.2257 45.8388 15.0968 44.4516 15.0968H43.5651L46.4561 11.0492C46.7908 10.5803 46.9677 10.0285 46.9677 9.4531C46.9677 7.9409 45.7365 6.70968 44.2235 6.70968H43.6129C42.4983 6.70968 41.9053 7.38652 41.5128 7.83439C41.1471 8.25206 41.002 8.3871 40.6749 8.3871C40.3478 8.3871 40.2027 8.25206 39.837 7.83439C39.4445 7.38652 38.8515 6.70968 37.7369 6.70968C36.6223 6.70968 36.0301 7.38735 35.6385 7.83523C35.2745 8.25206 35.1285 8.3871 34.8039 8.3871C34.4794 8.3871 34.3334 8.25206 33.9686 7.83523C33.5769 7.38735 32.9848 6.70968 31.871 6.70968H31.2604C30.8821 6.70968 30.5215 6.78684 30.1935 6.92523V4.19355C30.1935 1.88123 28.3123 0 26 0H4.19355C1.88123 0 0 1.88123 0 4.19355V47.8064C0 50.1188 1.88123 52 4.19355 52H26C28.3123 52 30.1935 50.1188 30.1935 47.8064V43.1063C32.3859 44.4818 34.9683 45.2903 37.7419 45.2903C45.604 45.2903 52 38.8943 52 31.0323C52 26.4386 49.7741 22.1637 46.0972 19.5008ZM45.2903 17.6129C45.2903 18.0759 44.9137 18.4516 44.4516 18.4516H31.0323C30.5701 18.4516 30.1935 18.0759 30.1935 17.6129C30.1935 17.1499 30.5701 16.7742 31.0323 16.7742H44.4516C44.9137 16.7742 45.2903 17.1499 45.2903 17.6129ZM30.1935 12.6821L31.9188 15.0968H31.0323C30.737 15.0968 30.4569 15.1572 30.1935 15.2511V12.6821ZM31.2604 8.3871H31.871C32.1955 8.3871 32.3415 8.52213 32.7055 8.93897C33.0972 9.38684 33.6893 10.0645 34.8039 10.0645C35.9177 10.0645 36.5099 9.38684 36.9015 8.93897C37.2664 8.52213 37.4115 8.3871 37.7369 8.3871C38.064 8.3871 38.2091 8.52213 38.5748 8.93981C38.9673 9.38768 39.5603 10.0645 40.6749 10.0645C41.7895 10.0645 42.3825 9.38768 42.775 8.93981C43.1407 8.52213 43.2858 8.3871 43.6129 8.3871H44.2235C44.8114 8.3871 45.2903 8.86516 45.2903 9.4531C45.2903 9.67703 45.2215 9.8909 45.0915 10.0737L41.5035 15.0968H33.9795L30.3923 10.0746C30.2623 9.89174 30.1935 9.67703 30.1935 9.4531C30.1935 8.86516 30.6725 8.3871 31.2604 8.3871ZM4.19355 1.67742H26C27.3872 1.67742 28.5161 2.80632 28.5161 4.19355V6.70968H1.67742V4.19355C1.67742 2.80632 2.80632 1.67742 4.19355 1.67742ZM26 50.3226H4.19355C2.80632 50.3226 1.67742 49.1937 1.67742 47.8064V45.2903H28.5161V47.8064C28.5161 49.1937 27.3872 50.3226 26 50.3226ZM28.5161 43.6129H1.67742V8.3871H28.5161V17.6129C28.5161 18.3686 28.8575 19.0395 29.3867 19.5008C25.7098 22.1637 23.4839 26.4386 23.4839 31.0323C23.4839 35.3768 25.4423 39.2667 28.5161 41.8835V43.6129ZM37.7419 43.6129C30.805 43.6129 25.1613 37.9692 25.1613 31.0323C25.1613 26.5301 27.5868 22.3743 31.5003 20.129H43.9811C47.8962 22.3717 50.3226 26.5284 50.3226 31.0323C50.3226 37.9692 44.6789 43.6129 37.7419 43.6129Z" fill="#1F2428"/>
</svg>
