<svg width="52" height="52" viewBox="0 0 52 52" fill="none" xmlns="http://www.w3.org/2000/svg">
<path d="M40.2581 13.9276V11.1691C41.8868 8.92723 43.0367 6.31716 43.5961 3.52174L43.7135 2.94135L43.2061 2.6369C40.331 0.911677 37.0416 0 33.6901 0H30.1935V0.83871C30.1935 1.24213 30.2028 1.64471 30.2179 2.04729C27.6497 2.76523 25.5907 4.29084 25.4968 4.36129L25.0514 4.6951L25.1865 5.23523C25.7517 7.49555 26.9041 9.56297 28.5161 11.2379V13.9276L25.584 17.0694C22.9077 19.937 20.7983 23.2239 19.2954 26.8387H18.4516V21.8065C18.4516 20.8814 17.6993 20.129 16.7742 20.129H1.67742C0.752322 20.129 0 20.8814 0 21.8065V50.3226C0 51.2477 0.752322 52 1.67742 52H43.6129C44.46 52 45.1544 51.3676 45.2668 50.5515C49.3706 48.3894 52 44.0792 52 39.4194C52 31.0935 48.8716 23.1559 43.1902 17.0694L40.2581 13.9276ZM33.6901 1.67742C36.5384 1.67742 39.3388 2.40123 41.8265 3.77671C41.3048 6.032 40.3176 8.18245 38.974 10.0645H33.327C32.453 7.34458 31.9615 4.53071 31.8827 1.67742H33.6901ZM30.1935 13.4194V11.7419H38.5806V13.4194H30.1935ZM30.3328 3.76581C30.529 5.90032 30.9408 8.00716 31.564 10.0645H29.7222C28.449 8.74019 27.4996 7.14077 26.967 5.38619C27.6162 4.96516 28.8801 4.2271 30.3328 3.76581ZM38.6477 28.5161C39.0176 31.0817 41.0473 33.1114 43.6129 33.4813V38.6477C41.0473 39.0176 39.0176 41.0473 38.6477 43.6129H13.3523C12.9824 41.0473 10.9527 39.0176 8.3871 38.6477V33.4813C10.9527 33.1114 12.9824 31.0817 13.3523 28.5161H38.6477ZM5.03226 23.4839V21.8065H6.70968V23.4839H5.03226ZM10.0645 25.1613V26.8387H1.67742V25.1613H10.0645ZM8.3871 40.3428C10.0276 40.6774 11.3226 41.9724 11.6572 43.6129H8.3871V40.3428ZM8.3871 28.5161H11.6572C11.3226 30.1566 10.0276 31.4516 8.3871 31.7863V28.5161ZM16.7742 25.1613V26.8387H15.0968V25.1613H16.7742ZM13.4194 26.8387H11.7419V25.1613H13.4194V26.8387ZM6.70968 28.5161V30.1935H1.67742V28.5161H6.70968ZM6.70968 31.871V33.5484H1.67742V31.871H6.70968ZM6.70968 35.2258V36.9032H1.67742V35.2258H6.70968ZM6.70968 38.5806V40.2581H1.67742V38.5806H6.70968ZM6.70968 41.9355V43.6129H1.67742V41.9355H6.70968ZM6.70968 45.2903V46.9677H1.67742V45.2903H6.70968ZM8.3871 45.2903H43.6129V46.9677H8.3871V45.2903ZM43.6129 43.6129H40.3428C40.6774 41.9724 41.9724 40.6774 43.6129 40.3428V43.6129ZM43.6129 31.7863C41.9724 31.4516 40.6774 30.1566 40.3428 28.5161H43.6129V31.7863ZM16.7742 23.4839H8.3871V21.8065H16.7742V23.4839ZM3.35484 21.8065V23.4839H1.67742V21.8065H3.35484ZM1.67742 48.6452H6.70968V50.3226H1.67742V48.6452ZM8.3871 50.3226V48.6452H43.6129V50.3226H8.3871ZM45.2903 48.6015V28.5161C45.2903 27.591 44.538 26.8387 43.6129 26.8387H21.1162C22.521 23.6617 24.4308 20.7639 26.8102 18.2143L29.7197 15.0968H31.871V20.129H33.5484V15.0968H35.2258V21.8065H36.9032V15.0968H39.0545L41.964 18.2143C47.3544 23.9896 50.3226 31.5195 50.3226 39.4194C50.3226 43.1457 48.3835 46.6146 45.2903 48.6015Z" fill="#1F2428"/>
</svg>
