<svg width="52" height="45" viewBox="0 0 52 45" fill="none" xmlns="http://www.w3.org/2000/svg">
<path d="M51.4022 5.25028C51.4022 3.9304 50.8882 2.68929 49.9547 1.75576L49.0883 0.889379L34.2198 7.93232L33.8741 10.1791H32.9331L35.2752 11.5844C36.0172 12.0296 36.479 12.8445 36.479 13.7109C36.479 14.3982 36.1897 15.0606 35.6864 15.5274L25.7011 24.7997L15.7158 15.5274C15.2126 15.0606 14.9232 14.3982 14.9232 13.7109C14.9232 12.8445 15.385 12.0304 16.127 11.5844L18.4692 10.1791H17.5282L17.3358 8.92554L17.1833 7.93149L2.31393 0.88855L1.44755 1.75576C0.514022 2.68929 0 3.9304 0 5.25028C0 7.06014 0.986591 8.72242 2.57592 9.58879L2.95977 9.79772C2.13734 10.6036 1.65814 11.7046 1.65814 12.8802C1.65814 14.5889 2.66711 16.1409 4.22825 16.8349L4.78953 17.0844C3.85848 17.8853 3.31627 19.0534 3.31627 20.3004C3.31627 22.048 4.36505 23.5967 5.98753 24.2451L15.7548 28.1516L21.6379 36.7093H19.2651C18.3166 36.7093 17.4643 37.2357 17.0398 38.0839L15.1529 41.8586C15.0028 42.1587 14.9232 42.4945 14.9232 42.8295C14.9232 44.0266 15.8974 45 17.0937 45H34.3085C35.5049 45 36.479 44.0266 36.479 42.8295C36.479 42.4945 36.3994 42.1587 36.2502 41.8586L34.3632 38.0839C33.9387 37.2357 33.0856 36.7093 32.138 36.7093H29.7644L35.6475 28.1516L45.4147 24.2442C47.0372 23.5959 48.086 22.0472 48.086 20.3004C48.086 19.0534 47.5438 17.8861 46.6135 17.0844L47.1748 16.8349C48.736 16.1409 49.7449 14.5889 49.7449 12.8802C49.7449 11.7046 49.2657 10.6036 48.4433 9.79772L48.8263 9.58879C50.4157 8.72325 51.4022 7.06014 51.4022 5.25028ZM4.97441 20.3004C4.97441 19.4323 5.40636 18.6265 6.12847 18.1448L6.54715 17.8654L9.61222 19.2275L10.2863 17.7128L4.90145 15.3193C3.9389 14.8915 3.31627 13.9339 3.31627 12.8802C3.31627 11.9856 3.76065 11.1557 4.50516 10.66L4.52091 10.65L9.55253 13.395L10.3459 11.9392L3.37016 8.13378C2.31393 7.55758 1.65814 6.45326 1.65814 5.25028C1.65814 4.37312 1.99971 3.5482 2.61986 2.92806L2.66048 2.88826L16.4844 9.43625L15.2739 10.1625C14.0353 10.9054 13.2651 12.2659 13.2651 13.7109C13.2651 14.8575 13.7468 15.9635 14.5875 16.7428L15.909 17.9698L14.8478 19.0302C13.8272 20.0508 13.2651 21.408 13.2651 22.8522C13.2651 23.867 13.5578 24.8428 14.0917 25.7009L6.6027 22.7055C5.61362 22.3092 4.97441 21.3657 4.97441 20.3004ZM15.5823 24.9755C15.1512 24.347 14.9232 23.6133 14.9232 22.8522C14.9232 21.8507 15.3129 20.9106 16.0201 20.2034L17.1244 19.099L24.8721 26.2929V36.7093H23.65L15.5823 24.9755ZM32.8792 38.8259L34.7662 42.6006C34.8026 42.6711 34.8209 42.7507 34.8209 42.8295C34.8209 43.1122 34.5912 43.3418 34.3085 43.3418H17.0937C16.811 43.3418 16.5814 43.1122 16.5814 42.8295C16.5814 42.7507 16.5996 42.6711 16.6353 42.6006L18.5222 38.8259C18.6648 38.5432 18.9484 38.3674 19.2642 38.3674H32.1372C32.4539 38.3674 32.7374 38.5432 32.8792 38.8259ZM26.5302 36.7093V26.2929L34.2778 19.099L35.3822 20.2034C36.0893 20.9106 36.479 21.8515 36.479 22.8522C36.479 23.6133 36.251 24.347 35.8199 24.9746L27.7522 36.7093H26.5302ZM48.0329 8.13295L41.0571 11.9384L41.8505 13.3942L46.8822 10.6492L46.8979 10.6591C47.6416 11.1549 48.0868 11.9856 48.0868 12.8794C48.0868 13.9331 47.4642 14.8907 46.5016 15.3185L41.1176 17.7112L41.7917 19.2259L44.8567 17.8637L45.2754 18.1431C45.9975 18.6248 46.4295 19.4307 46.4295 20.2987C46.4295 21.3641 45.7903 22.3084 44.8012 22.7038L37.3122 25.6993C37.8445 24.8428 38.1371 23.867 38.1371 22.8522C38.1371 21.408 37.575 20.0508 36.5545 19.0311L35.4932 17.9707L36.8148 16.7437C37.6555 15.9635 38.1371 14.8575 38.1371 13.7109C38.1371 12.2659 37.3669 10.9062 36.1283 10.1625L34.9179 9.43625L48.7418 2.88826L48.7824 2.92806C49.4025 3.5482 49.7441 4.37312 49.7441 5.25028C49.7441 6.45326 49.0883 7.55758 48.0329 8.13295Z" fill="#1F2428"/>
</svg>
